<svg xmlns="http://www.w3.org/2000/svg" width="500" height="115.91" viewBox="0 0 500 115.91"><defs><style>.a{fill:#4a4a49;}.b{fill:#af1280;}</style></defs><title>ITII Île-de-France</title><path class="a" d="M82.14,72.5a2.92,2.92,0,0,0-1.89-.66H61.78a3.51,3.51,0,0,1-2.55-.65,4.5,4.5,0,0,1-.6-2.82V35.42H41.8V65.76c0,2.83.06,5.27.22,7.27A7.62,7.62,0,0,0,44,77.94a11,11,0,0,0,5.7,2.7A55.57,55.57,0,0,0,61,81.51H80.25a2.61,2.61,0,0,0,1.89-.81A2.35,2.35,0,0,0,83,79V74A1.89,1.89,0,0,0,82.14,72.5Zm-23.51-71a2.43,2.43,0,0,0-1-1A2.89,2.89,0,0,0,56,0H44.51a2.83,2.83,0,0,0-1.95.64,1.94,1.94,0,0,0-.76,1.53V15.54H58.63ZM14.28,35.73H2.71a2.64,2.64,0,0,0-1.9.8A2.48,2.48,0,0,0,0,38.21V79.4a1.89,1.89,0,0,0,.81,1.51,2.92,2.92,0,0,0,1.9.65H14.28a2.89,2.89,0,0,0,1.89-.65A1.83,1.83,0,0,0,17,79.4V38.21a2.4,2.4,0,0,0-.81-1.68A2.62,2.62,0,0,0,14.28,35.73Zm0-15.19H2.71a2.61,2.61,0,0,0-1.9.81A2.44,2.44,0,0,0,0,23v5.52a1.87,1.87,0,0,0,.81,1.51,3,3,0,0,0,1.9.66H14.28a3,3,0,0,0,1.89-.66A1.82,1.82,0,0,0,17,28.54V23a2.36,2.36,0,0,0-.81-1.67A2.59,2.59,0,0,0,14.28,20.54Zm92.11,15.19H94.83a2.62,2.62,0,0,0-1.9.8,2.44,2.44,0,0,0-.81,1.68V79.4a1.86,1.86,0,0,0,.81,1.51,2.9,2.9,0,0,0,1.9.65h11.56a2.94,2.94,0,0,0,1.9-.65,1.85,1.85,0,0,0,.8-1.51V38.21a2.42,2.42,0,0,0-.8-1.68A2.66,2.66,0,0,0,106.39,35.73Zm0-15.19H94.83a2.6,2.6,0,0,0-1.9.81A2.4,2.4,0,0,0,92.12,23v5.52a1.85,1.85,0,0,0,.81,1.51,3,3,0,0,0,1.9.66h11.56a3,3,0,0,0,1.9-.66,1.84,1.84,0,0,0,.8-1.51V23a2.38,2.38,0,0,0-.8-1.67A2.63,2.63,0,0,0,106.39,20.54Zm28,15.19H122.86a2.64,2.64,0,0,0-1.9.8,2.44,2.44,0,0,0-.81,1.68V79.4a1.86,1.86,0,0,0,.81,1.51,2.92,2.92,0,0,0,1.9.65h11.57a2.91,2.91,0,0,0,1.89-.65,1.83,1.83,0,0,0,.81-1.51V38.21a2.4,2.4,0,0,0-.81-1.68A2.64,2.64,0,0,0,134.43,35.73Zm1.89-14.38a2.61,2.61,0,0,0-1.89-.81H122.86a2.61,2.61,0,0,0-1.9.81,2.4,2.4,0,0,0-.81,1.67v5.52a1.85,1.85,0,0,0,.81,1.51,3,3,0,0,0,1.9.66h11.57a3,3,0,0,0,1.89-.66,1.82,1.82,0,0,0,.81-1.51V23A2.36,2.36,0,0,0,136.32,21.35Z"/><path class="b" d="M28.44,29.7a1.94,1.94,0,0,1-.76-1.53V23.08a1.91,1.91,0,0,1,.76-1.53,2.83,2.83,0,0,1,1.95-.64H80a2.83,2.83,0,0,1,2,.64,1.94,1.94,0,0,1,.76,1.53v5.09A2,2,0,0,1,82,29.7a2.88,2.88,0,0,1-2,.64H30.39a2.88,2.88,0,0,1-1.95-.64"/><path class="b" d="M137,115.91H60.57c-13,0-14.51-1.46-22.62-9.57l-2.63-2.89c-8.14-8.15-9.18-9.19-21.78-9.19H0V93.05H13.54c13.1,0,14.37,1.27,22.66,9.57l2.59,2.84C47,113.65,48,114.7,60.57,114.7H137Z"/><path class="a" d="M7.61,103.78H.09v-1.21H7.61c12.72,0,13.77-.49,22-4.23l2.54-1.28c8.31-3.79,9.57-4.36,22.51-4.36H137v1.21H54.64c-12.67,0-13.91.56-22,4.23l-2.57,1.29C21.86,103.2,20.59,103.78,7.61,103.78Z"/><path class="b" d="M161.18,79.39h5V46.18h-5Zm.56-43.95-6,7.51h4l4.05-4.53L167.81,43h4l-6-7.51Zm18.19,10.74h-5V79.39h21.05V74.88h-16Zm21.74,33.21h21.24V74.88H206.72v-10h13.81V60.41H206.72v-9.7h16.19V46.18H201.67ZM228.6,68.67h13.63V64.23H228.6Zm32.75-22.49H249.69V79.39h11.66c4.16,0,7.1-1.3,9.43-4.19s2.52-7.11,2.52-12.42-.09-9.41-2.52-12.41S265.51,46.18,261.35,46.18Zm5.14,26.46a7,7,0,0,1-5.7,2.28h-6.07V50.65h6.07a7.06,7.06,0,0,1,5.7,2.29c1.63,1.82,1.77,4.92,1.77,9.85S268.12,70.82,266.49,72.64Zm14.27,6.75H302V74.88H285.8v-10h13.82V60.41H285.8v-9.7H302V46.18H280.76Zm26.91-10.72h13.64V64.23H307.67ZM328.76,79.4h5V65.35h13.82V60.82H333.8V50.71H350V46.18H328.76Zm50.51-23.52c0-5.64-4-9.7-10.32-9.7H356.07V79.4h5v-14h6.31l7,14h5.88L372.64,64.7A8.73,8.73,0,0,0,379.27,55.88ZM361.1,61.1V50.71h7.46c3.37,0,5.65,1.95,5.65,5.22s-2.29,5.17-5.65,5.17Zm33.73-14.92L382.65,79.4H388l2.29-6.67h13.11l2.28,6.67h5.37L398.89,46.18Zm-3,22.26L397,53.69l5,14.75Zm44,1.07L420.4,46.18h-4.62V79.4h5V56L436.17,79.4h4.63V46.18h-5ZM460.2,50.37c3.69,0,6,2.34,6.72,5.75h5.13c-1.16-6.59-5.73-10.23-11.85-10.23a11.6,11.6,0,0,0-8.59,3.36c-3.22,3.27-3.36,6.59-3.36,13.54s.14,10.26,3.36,13.53a11.62,11.62,0,0,0,8.59,3.36c6.07,0,10.69-3.64,11.85-10.22h-5c-.81,3.4-3.13,5.74-6.82,5.74a6.5,6.5,0,0,1-4.9-2.06c-1.69-1.76-2-3.78-2-10.35s.32-8.6,2-10.36A6.46,6.46,0,0,1,460.2,50.37Zm39.8.34V46.18H478.76V79.39H500V74.88H483.82v-10h13.8V60.41h-13.8v-9.7Z"/></svg>